<svg width="16" height="16" viewBox="0 0 16 16" fill="none" xmlns="http://www.w3.org/2000/svg">
<g clip-path="url(#clip0_2_23)">
<path d="M12.25 0H3.75C1.67893 0 0 1.67893 0 3.75V12.25C0 14.3211 1.67893 16 3.75 16H12.25C14.3211 16 16 14.3211 16 12.25V3.75C16 1.67893 14.3211 0 12.25 0Z" fill="#F4F2ED"/>
<path d="M7.49237 1.94475C7.79981 1.76881 8.20019 1.768 8.50731 1.94475C10.0524 2.81788 11.5981 3.68956 13.1429 4.56319C13.4336 4.72688 13.6279 5.05025 13.6249 5.38506V10.6379C13.6271 10.9866 13.4136 11.3177 13.107 11.4776C11.5669 12.3459 10.0276 13.2153 8.48781 14.0836C8.17412 14.2629 7.76569 14.2491 7.46169 14.055C7 13.7874 6.5375 13.521 6.07575 13.2536C5.98137 13.1974 5.875 13.1526 5.80837 13.0611C5.86731 12.9817 5.97262 12.9719 6.05819 12.9372C6.25087 12.8759 6.42794 12.7775 6.60494 12.6821C6.64975 12.6514 6.70437 12.6632 6.74731 12.6906C7.14212 12.9169 7.5335 13.1499 7.92962 13.3741C8.01412 13.4229 8.09969 13.3581 8.17194 13.3179C9.68319 12.4637 11.1963 11.6128 12.7074 10.7584C12.7634 10.7314 12.7943 10.672 12.7897 10.6107C12.7908 8.87787 12.79 7.14481 12.7903 5.41194C12.7967 5.34244 12.7564 5.27844 12.6935 5.24994C11.1588 4.38563 9.62481 3.52006 8.09037 2.65556C8.06379 2.6373 8.0323 2.62749 8.00005 2.62744C7.96779 2.62738 7.93627 2.63708 7.90962 2.65525C6.37512 3.52006 4.8415 4.3865 3.307 5.25069C3.24431 5.27925 3.20225 5.34219 3.20969 5.41194C3.21 7.14481 3.20969 8.87787 3.20969 10.6109C3.20701 10.6409 3.21358 10.6709 3.22851 10.697C3.24344 10.7231 3.26601 10.744 3.29319 10.7568C3.70262 10.989 4.11262 11.2196 4.52237 11.451C4.75325 11.5752 5.03662 11.6491 5.291 11.5539C5.51537 11.4734 5.67269 11.2443 5.66844 11.0061C5.67056 9.28338 5.66737 7.56044 5.67 5.83794C5.66437 5.7615 5.73694 5.69831 5.81131 5.70556C6.00806 5.70419 6.20506 5.70288 6.40181 5.70606C6.48394 5.70419 6.54044 5.78656 6.53031 5.86356C6.5295 7.59719 6.53244 9.33081 6.529 11.0644C6.5295 11.5264 6.33969 12.0292 5.91231 12.2552C5.38587 12.5279 4.73512 12.4701 4.215 12.2086C3.76475 11.9839 3.335 11.7186 2.89275 11.4779C2.58537 11.3188 2.37287 10.9864 2.37506 10.6379V5.38506C2.37181 5.04331 2.57394 4.71406 2.8735 4.55275C4.41331 3.68381 5.95287 2.81413 7.49237 1.94475Z" fill="#81CD39"/>
<path d="M8.83575 5.58344C9.50731 5.54019 10.2262 5.55782 10.8306 5.88869C11.2985 6.14219 11.5579 6.67432 11.5661 7.19413C11.5531 7.26419 11.4797 7.30288 11.4128 7.29807C11.218 7.29782 11.0231 7.30075 10.8282 7.29675C10.7456 7.29994 10.6976 7.22375 10.6872 7.15069C10.6312 6.90194 10.4955 6.65563 10.2614 6.53563C9.90206 6.35575 9.48543 6.36482 9.0935 6.36857C8.8075 6.38369 8.49987 6.4085 8.2575 6.57669C8.07143 6.70413 8.01493 6.96138 8.08131 7.16857C8.14393 7.31732 8.31562 7.36532 8.45612 7.40957C9.2655 7.62125 10.1231 7.60013 10.9169 7.87869C11.2457 7.99225 11.5672 8.21307 11.6797 8.55719C11.8269 9.01844 11.7624 9.56969 11.4342 9.93994C11.1681 10.2446 10.7805 10.4105 10.3939 10.5006C9.87968 10.6153 9.346 10.6182 8.82375 10.5673C8.33268 10.5113 7.82162 10.3823 7.44256 10.0477C7.11837 9.76619 6.96006 9.32757 6.97575 8.90432C6.9795 8.83282 7.05068 8.78294 7.11918 8.78882C7.31537 8.78725 7.51162 8.78669 7.70781 8.78913C7.78618 8.7835 7.84431 8.85125 7.84831 8.92513C7.8845 9.16207 7.97356 9.41082 8.18018 9.55125C8.579 9.80857 9.07943 9.79094 9.53606 9.79813C9.91431 9.78138 10.339 9.77632 10.6477 9.52625C10.8106 9.38363 10.8589 9.145 10.8149 8.93975C10.7672 8.76644 10.5859 8.68569 10.4302 8.63288C9.63125 8.38019 8.764 8.47188 7.97281 8.18607C7.65156 8.07257 7.34093 7.85794 7.21756 7.52794C7.04537 7.06088 7.12425 6.48313 7.48681 6.12544C7.84031 5.7695 8.35056 5.63244 8.83575 5.58344Z" fill="#81CD39"/>
</g>
<defs>
<clipPath id="clip0_2_23">
<rect width="16" height="16" fill="white"/>
</clipPath>
</defs>
</svg>
