<svg width="16" height="16" viewBox="0 0 16 16" fill="none" xmlns="http://www.w3.org/2000/svg">
<path d="M12 12.6667C12 13.1971 11.7893 13.7058 11.4142 14.0809C11.0391 14.456 10.5304 14.6667 10 14.6667H5.33333C4.8029 14.6667 4.29419 14.456 3.91912 14.0809C3.54405 13.7058 3.33333 13.1971 3.33333 12.6667V4.66667H2.66667V2.66667H5.66667L6.33333 2H9L9.66667 2.66667H12.6667V4.66667H12V12.6667ZM4 4.66667V12.6667C4 13.0203 4.14048 13.3594 4.39053 13.6095C4.64057 13.8595 4.97971 14 5.33333 14H10C10.3536 14 10.6928 13.8595 10.9428 13.6095C11.1929 13.3594 11.3333 13.0203 11.3333 12.6667V4.66667H4ZM12 4V3.33333H9.33333L8.66667 2.66667H6.66667L6 3.33333H3.33333V4H12ZM5.33333 6H6V12.6667H5.33333V6ZM9.33333 6H10V12.6667H9.33333V6Z" fill="#F24822"/>
</svg>
