<svg width="16" height="16" viewBox="0 0 16 16" fill="none" xmlns="http://www.w3.org/2000/svg">
<path d="M11.4333 6.4L6.66667 11.1667L4.53333 9.03333L5 8.56L6.66667 10.2267L10.96 5.92667L11.4333 6.4ZM7.66667 2C11.1667 2 14 4.83333 14 8.33333C14 11.8333 11.1667 14.6667 7.66667 14.6667C4.16667 14.6667 1.33333 11.8333 1.33333 8.33333C1.33333 4.83333 4.16667 2 7.66667 2ZM7.66667 2.66667C4.54 2.66667 2 5.20667 2 8.33333C2 11.46 4.54 14 7.66667 14C10.7933 14 13.3333 11.46 13.3333 8.33333C13.3333 5.20667 10.7933 2.66667 7.66667 2.66667Z" fill="#FFCD29"/>
</svg>
