<svg width="16" height="16" viewBox="0 0 16 16" fill="none" xmlns="http://www.w3.org/2000/svg">
<path d="M7.66667 2C9.34637 2 10.9573 2.66726 12.145 3.85499C13.3327 5.04272 14 6.65363 14 8.33333C14 10.013 13.3327 11.6239 12.145 12.8117C10.9573 13.9994 9.34637 14.6667 7.66667 14.6667C5.98696 14.6667 4.37605 13.9994 3.18832 12.8117C2.00059 11.6239 1.33333 10.013 1.33333 8.33333C1.33333 6.65363 2.00059 5.04272 3.18832 3.85499C4.37605 2.66726 5.98696 2 7.66667 2ZM7.66667 2.66667C6.16377 2.66667 4.72243 3.26369 3.65973 4.3264C2.59702 5.3891 2 6.83044 2 8.33333C2 9.83623 2.59702 11.2776 3.65973 12.3403C4.72243 13.403 6.16377 14 7.66667 14C8.41082 14 9.14769 13.8534 9.83521 13.5687C10.5227 13.2839 11.1474 12.8665 11.6736 12.3403C12.1998 11.8141 12.6172 11.1894 12.902 10.5019C13.1868 9.81436 13.3333 9.07749 13.3333 8.33333C13.3333 6.83044 12.7363 5.3891 11.6736 4.3264C10.6109 3.26369 9.16956 2.66667 7.66667 2.66667Z" fill="#FFCD29"/>
</svg>
